<svg xmlns="http://www.w3.org/2000/svg" xmlns:xlink="http://www.w3.org/1999/xlink" viewBox="0 0 1020 256"><defs><style>.cls-1{font-size:172px;fill:#226b07;font-family:NotoSansDisplay-CondensedMedium, Noto Sans Display;font-weight:500;}.cls-2{letter-spacing:-0.01em;}.cls-3{letter-spacing:0em;}.cls-4{fill:url(#linear-gradient);}.cls-5,.cls-7{fill:#e6e6e6;}.cls-5,.cls-6,.cls-8{stroke:#e6e6e6;stroke-miterlimit:10;}.cls-6,.cls-8{fill:none;stroke-width:4px;}.cls-8{stroke-dasharray:3 3;}</style><linearGradient id="linear-gradient" x1="-12.15" y1="90.45" x2="268.15" y2="165.55" gradientUnits="userSpaceOnUse"><stop offset="0" stop-color="#22b573"/><stop offset="0.02" stop-color="#22b16e"/><stop offset="0.12" stop-color="#229c4e"/><stop offset="0.24" stop-color="#228a34"/><stop offset="0.37" stop-color="#227c20"/><stop offset="0.52" stop-color="#227212"/><stop offset="0.7" stop-color="#226d09"/><stop offset="1" stop-color="#226b07"/></linearGradient></defs><title>Artboard 1</title><g id="Text"><text class="cls-1" transform="translate(275.25 215.33)">Compt<tspan class="cls-2" x="434.12" y="0">o</tspan><tspan class="cls-3" x="515.13" y="0">xAI</tspan></text></g><g id="Logo"><rect id="Background" class="cls-4" width="256" height="256" rx="52"/><g id="Graph"><g id="Chem"><path class="cls-5" d="M21.06,162.5l-2.12-1.25v50.88l2.12-1.25Z"/><path class="cls-5" d="M26.38,166.19H28.5v41H26.38Z"/><path class="cls-5" d="M21.06,210.88l-2.12,1.25,44,25.37v-2.44Z"/><path class="cls-5" d="M62.94,235.06v2.44L107,212.13l-2.12-1.25Z"/><path class="cls-5" d="M62.44,226.81l1.06,1.82L99,208.13l-1.06-1.82Z"/><path class="cls-5" d="M104.88,210.88l2.12,1.25V161.25l-2.12,1.25Z"/><path class="cls-5" d="M104.88,162.5l2.12-1.25L62.94,135.88v2.43Z"/><path class="cls-5" d="M97.94,167.13,99,165.25l-35.5-20.5-1.06,1.81Z"/><path class="cls-5" d="M62.94,138.31v-2.43l-44,25.37,2.12,1.25Z"/></g><g id="Gene"><path class="cls-5" d="M130.74,33.55c.31.57.53,1,.77,1.42,1.81,3.1,3.64,6.19,5.44,9.29a6.18,6.18,0,0,1,.64,1.32,2.44,2.44,0,0,1-1.05,2.69,2.32,2.32,0,0,1-3-.39,7.3,7.3,0,0,1-.9-1.34c-2.17-3.69-4.32-7.39-6.48-11.08-.25-.42-.51-.83-.79-1.29A12.88,12.88,0,0,0,119,38c.26.5.48.93.72,1.35q3.45,6.11,6.91,12.19a2.94,2.94,0,0,1,.51,2.37,2.36,2.36,0,0,1-4,1.07,5.72,5.72,0,0,1-.82-1.21q-2.82-4.93-5.6-9.88a15.24,15.24,0,0,1-.66-1.61A16,16,0,0,0,114,47a44.74,44.74,0,0,0-1.64,12.23,37,37,0,0,1-1.22,9.48,23.59,23.59,0,0,1-5.77,10.46,17.62,17.62,0,0,1-5.22,3.79,6.4,6.4,0,0,1-1.24.46A2.4,2.4,0,0,1,96.12,82a2.43,2.43,0,0,1,1.11-3c.72-.41,1.52-.71,2.21-1.16a16.55,16.55,0,0,0,6.47-8.71,33.59,33.59,0,0,0,1.65-11,44,44,0,0,1,2.26-13.76A24.26,24.26,0,0,1,117.23,33a19.46,19.46,0,0,1,13.45-4.32,30.07,30.07,0,0,1,8.95,1.66,2.26,2.26,0,0,1,1.66,2.6,2.36,2.36,0,0,1-3,2c-1.92-.41-3.83-.84-5.76-1.23A14.29,14.29,0,0,0,130.74,33.55Z"/><path class="cls-5" d="M119,63.35c-.72-.19-1.44-.33-2.14-.58a2.37,2.37,0,0,1,1.32-4.55,61.47,61.47,0,0,0,6.66,1.16c5.87.39,11-1.36,14.8-6a20.49,20.49,0,0,0,4.23-10.08,39.67,39.67,0,0,0,.26-7.78,32.74,32.74,0,0,1,1.43-11.64,26.28,26.28,0,0,1,9.88-13.75,8,8,0,0,1,1.65-1,2.31,2.31,0,0,1,2.94,1,2.34,2.34,0,0,1-.6,3.16c-.19.15-.41.27-.61.41a20.7,20.7,0,0,0-8.26,10.61A27.85,27.85,0,0,0,149,35.58a36.23,36.23,0,0,1-1.54,13.24A21.56,21.56,0,0,1,126,64.29,26.59,26.59,0,0,1,119,63.35Z"/><path class="cls-5" d="M88.83,54.9A12.55,12.55,0,0,0,85,57a2.39,2.39,0,0,1-3.24-3.51,12.35,12.35,0,0,1,2.77-1.92A22.87,22.87,0,0,1,98.2,49.27c1.7.19,3.37.64,5.06,1a2.39,2.39,0,1,1-1.19,4.61,30.94,30.94,0,0,0-6.84-.92c-.34,0-.68,0-1.18.06.22.45.39.83.6,1.18l6.89,11.5a8.56,8.56,0,0,1,.71,1.29,2.33,2.33,0,0,1-1,2.94,2.3,2.3,0,0,1-3-.53,7.6,7.6,0,0,1-.73-1.11q-3.6-6-7.21-12C89.81,56.49,89.35,55.74,88.83,54.9Z"/><path class="cls-5" d="M162.11,39c-.37-.64-.59-1.06-.85-1.46l-6.59-10.3A8,8,0,0,1,154,26a2.38,2.38,0,0,1,.91-2.85,2.34,2.34,0,0,1,3,.29,6.73,6.73,0,0,1,.86,1.18q3.87,6,7.71,12c.27.41.55.81.86,1.26a9.58,9.58,0,0,0,3.53-2.07A2.33,2.33,0,0,1,174,35.6a2.29,2.29,0,0,1,.47,3.26A7.61,7.61,0,0,1,173,40.27a19,19,0,0,1-12.62,3.58,27.82,27.82,0,0,1-7.23-1.3,2.4,2.4,0,0,1-1.78-1.95,2.25,2.25,0,0,1,.83-2.23,2.73,2.73,0,0,1,2.51-.38c1.82.37,3.66.68,5.49,1A17.62,17.62,0,0,0,162.11,39Z"/></g><g id="Drug"><path class="cls-5" d="M235,157.83a24.11,24.11,0,0,0-4.61-3.58c-.4.48-.83.94-1.27,1.39l-14,14.05,21,21A24.06,24.06,0,0,0,235,157.83Z"/><path class="cls-5" d="M197.35,187.36A24,24,0,0,0,233.76,193l-21-21Z"/><path class="cls-5" d="M226.8,130.66a16.06,16.06,0,0,0-22.71,0l-40.88,40.88a16.06,16.06,0,0,0,22.71,22.71l40.88-40.88c.21-.21.36-.46.55-.67A16,16,0,0,0,226.8,130.66Zm-2.27,20.44-.49.49-19.95,19.95-18.16-18.17,20.43-20.44a12.85,12.85,0,0,1,18.17,18.17Z"/></g><g id="EdgeGuide"><path class="cls-6" d="M157.82,213.14A90,90,0,0,1,128,218.19h-.7"/><polygon class="cls-7" points="150.58 208.74 155.71 213.85 155.59 221.1 167.73 208.99 150.58 208.74"/><polygon class="cls-7" points="132.73 211.69 129.53 218.19 131.99 225 116.58 217.47 132.73 211.69"/></g><g id="EdgeGuide-2" data-name="EdgeGuide"><path class="cls-6" d="M186,58.9a90.24,90.24,0,0,1,28.78,44.32"/><polygon class="cls-7" points="185.88 67.37 187.66 60.35 193.95 56.76 177.34 52.49 185.88 67.37"/><polygon class="cls-7" points="206.98 99.85 214.11 101.09 219.96 96.82 217.06 113.72 206.98 99.85"/></g><g id="EdgeGuide-3" data-name="EdgeGuide"><path class="cls-8" d="M37.82,126.82a89.86,89.86,0,0,1,25-61.1"/><polygon class="cls-7" points="44.44 121.54 37.87 124.59 31.12 121.99 38.31 137.55 44.44 121.54"/><polygon class="cls-7" points="63.79 74.13 61.24 67.35 54.59 64.48 70.63 58.41 63.79 74.13"/></g></g></g></svg>